<svg width="10" height="8" viewBox="0 0 10 8" fill="none" xmlns="http://www.w3.org/2000/svg">
<path d="M8.10102 0.723174C8.25654 0.578446 8.4635 0.498435 8.67823 0.500023C8.89296 0.501611 9.09866 0.584675 9.25192 0.731686C9.40519 0.878698 9.49403 1.07816 9.49971 1.28798C9.50539 1.4978 9.42745 1.70157 9.28234 1.8563L4.87721 7.24132C4.80146 7.32107 4.71004 7.38507 4.60841 7.42949C4.50678 7.47391 4.39703 7.49785 4.28572 7.49986C4.17441 7.50188 4.06383 7.48193 3.96059 7.44122C3.85734 7.4005 3.76356 7.33985 3.68484 7.2629L0.763544 4.40744C0.682191 4.33334 0.61694 4.24398 0.571683 4.1447C0.526426 4.04542 0.502091 3.93824 0.500129 3.82957C0.498167 3.72089 0.518619 3.61295 0.560265 3.51217C0.601911 3.41138 0.663897 3.31984 0.742525 3.24298C0.821154 3.16612 0.914814 3.10553 1.01792 3.06483C1.12102 3.02412 1.23146 3.00413 1.34264 3.00604C1.45382 3.00796 1.56347 3.03175 1.66504 3.07599C1.76661 3.12022 1.85802 3.184 1.93383 3.26352L4.2457 5.52221L8.08004 0.746916C8.08695 0.738607 8.09432 0.730681 8.10212 0.723174H8.10102Z" fill="#6E8F3D"/>
</svg>
